<svg width="22" height="20" viewBox="0 0 22 20" fill="none" xmlns="http://www.w3.org/2000/svg">
<path fill-rule="evenodd" clip-rule="evenodd" d="M12.8403 1.89478C13.1247 1.32572 13.5618 0.847062 14.1029 0.512411C14.6439 0.17776 15.2674 0.000332395 15.9035 0H17.0609C17.1656 0 17.266 0.0415893 17.3401 0.115619C17.4141 0.189648 17.4557 0.290053 17.4557 0.394746V3.90009L21.7316 5.32434C21.8098 5.35078 21.8779 5.40111 21.926 5.46825C21.9742 5.53538 22 5.61594 22 5.69856V7.21438C21.9992 8.12203 21.6382 8.99226 20.9964 9.63406C20.3546 10.2759 19.4844 10.6368 18.5768 10.6376H15.9399V10.6408C14.323 10.2981 13.1229 9.38707 12.2545 8.31336C11.6631 7.57396 11.192 6.74586 10.8587 5.85961L12.8403 1.89478ZM8.83916 6.06173H6.30962C5.02296 6.06009 3.77492 5.622 2.76954 4.81906L0.642647 3.11692C0.584499 3.07048 0.514409 3.04143 0.440462 3.03311C0.366515 3.02479 0.291722 3.03754 0.224708 3.06989C0.157695 3.10224 0.101191 3.15288 0.0617117 3.21595C0.0222328 3.27903 0.00138721 3.35198 0.00157908 3.4264V16.303C-0.0107401 16.661 0.0491231 17.0177 0.177601 17.3521C0.306079 17.6864 0.500543 17.9914 0.749405 18.249C0.998266 18.5066 1.29643 18.7114 1.62613 18.8513C1.95584 18.9912 2.31033 19.0633 2.66848 19.0633C3.02664 19.0633 3.38113 18.9912 3.71084 18.8513C4.04054 18.7114 4.3387 18.5066 4.58756 18.249C4.83643 17.9914 5.03089 17.6864 5.15937 17.3521C5.28785 17.0177 5.34771 16.661 5.33539 16.303V15.5451C5.33581 15.2481 5.45411 14.9633 5.6643 14.7534C5.8745 14.5435 6.15941 14.4256 6.45647 14.4256H9.48654C9.63376 14.4256 9.77955 14.4546 9.91556 14.5109C10.0516 14.5673 10.1752 14.6499 10.2793 14.754C10.3834 14.8581 10.4659 14.9817 10.5223 15.1177C10.5786 15.2537 10.6076 15.3995 10.6076 15.5467V16.3046C10.5953 16.6625 10.6552 17.0193 10.7836 17.3536C10.9121 17.6879 11.1066 17.993 11.3554 18.2506C11.6043 18.5081 11.9025 18.713 12.2322 18.8529C12.5619 18.9928 12.9164 19.0649 13.2745 19.0649C13.6327 19.0649 13.9872 18.9928 14.3169 18.8529C14.6466 18.713 14.9447 18.5081 15.1936 18.2506C15.4425 17.993 15.6369 17.6879 15.7654 17.3536C15.8939 17.0193 15.9538 16.6625 15.9414 16.3046V12.6461C13.5887 12.2687 11.8834 10.9882 10.7197 9.55444C9.88481 8.51449 9.24793 7.33009 8.84074 6.06015" fill="white"/>
</svg>
