<svg width="81" height="17" viewBox="0 0 81 17" fill="none" xmlns="http://www.w3.org/2000/svg">
<path d="M2.35188 4.76837e-05H12.1439C13.6799 4.76837e-05 14.8319 0.368048 15.5999 1.10405C16.3839 1.82405 16.7759 2.84005 16.7759 4.15205C16.7759 5.16005 16.5999 6.07205 16.2479 6.88805C15.8959 7.68805 15.4079 8.37605 14.7839 8.95205C14.1599 9.52805 13.4239 9.96805 12.5759 10.272C11.7279 10.576 10.8079 10.728 9.81588 10.728H5.15988L4.31988 16.8H-0.000121027L2.35188 4.76837e-05ZM5.63988 7.36805H10.1039C10.8239 7.36805 11.3599 7.16005 11.7119 6.74405C12.0639 6.32805 12.2799 5.84805 12.3599 5.30405C12.3919 5.09605 12.3999 4.88005 12.3839 4.65605C12.3679 4.43205 12.3039 4.22405 12.1919 4.03205C12.0959 3.84005 11.9439 3.68005 11.7359 3.55205C11.5439 3.42405 11.2719 3.36005 10.9199 3.36005H6.19188L5.63988 7.36805ZM12.3599 11.328L16.0319 16.8H11.0159L7.39188 11.328H12.3599ZM17.9331 4.76837e-05H31.1331L30.6771 3.36005H21.7731L21.3171 6.72005H29.4771L25.0851 10.08H20.8371L20.3811 13.44H29.4771L29.0211 16.8H15.5811L17.9331 4.76837e-05ZM31.8738 4.76837e-05H36.1938L42.8898 11.16L44.4498 4.76837e-05H48.7698L46.4178 16.8H42.0978L35.4018 5.64005L33.8418 16.8H29.5218L31.8738 4.76837e-05ZM48.7863 4.76837e-05H64.3863L62.0103 3.36005H58.2663L56.3943 16.8H52.0743L53.9463 3.36005H51.1623L48.7863 4.76837e-05ZM63.4111 4.32005C63.5071 3.66405 63.6911 3.07205 63.9631 2.54405C64.2511 2.01605 64.6111 1.56805 65.0431 1.20005C65.4751 0.816048 65.9711 0.520048 66.5311 0.312048C67.0911 0.104048 67.6911 4.76837e-05 68.3311 4.76837e-05H76.8991C77.5551 4.76837e-05 78.1311 0.104048 78.6271 0.312048C79.1231 0.520048 79.5311 0.816048 79.8511 1.20005C80.1871 1.56805 80.4191 2.01605 80.5471 2.54405C80.6911 3.07205 80.7151 3.66405 80.6191 4.32005L79.4671 12.48C79.3711 13.12 79.1791 13.712 78.8911 14.256C78.6191 14.784 78.2671 15.24 77.8351 15.624C77.4031 15.992 76.9071 16.28 76.3471 16.488C75.8031 16.696 75.2031 16.8 74.5471 16.8H65.9791C65.3391 16.8 64.7631 16.696 64.2511 16.488C63.7551 16.28 63.3391 15.992 63.0031 15.624C62.6831 15.24 62.4511 14.784 62.3071 14.256C62.1791 13.712 62.1631 13.12 62.2591 12.48L63.4111 4.32005ZM66.8191 10.848C66.7071 11.632 66.8191 12.264 67.1551 12.744C67.5071 13.208 68.0351 13.44 68.7391 13.44H72.6751C73.3791 13.44 73.9791 13.208 74.4751 12.744C74.9711 12.264 75.2751 11.632 75.3871 10.848L76.0591 5.95205C76.1711 5.16805 76.0511 4.54405 75.6991 4.08005C75.3471 3.60005 74.8191 3.36005 74.1151 3.36005H70.1791C69.4751 3.36005 68.8751 3.60005 68.3791 4.08005C67.8991 4.54405 67.6031 5.16805 67.4911 5.95205L66.8191 10.848Z" fill="#FEFEFF"/>
</svg>
