<svg width="20" height="25" viewBox="0 0 20 25" fill="none" xmlns="http://www.w3.org/2000/svg">
<path d="M1.26127 15.6827C1.13063 15.8405 1.04442 16.0367 1.01312 16.2474C0.981826 16.4582 1.00679 16.6744 1.08498 16.8698C1.16316 17.0652 1.2912 17.2314 1.45352 17.3481C1.61585 17.4648 1.80545 17.527 1.99927 17.5272H17.9993C18.1931 17.5272 18.3827 17.4653 18.5451 17.3488C18.7076 17.2323 18.8358 17.0663 18.9142 16.8711C18.9926 16.6758 19.0178 16.4596 18.9867 16.2488C18.9557 16.0381 18.8697 15.8418 18.7393 15.6838C17.4093 14.1733 15.9993 12.5679 15.9993 7.61087C15.9993 5.85756 15.3671 4.17606 14.2419 2.93628C13.1167 1.6965 11.5906 1 9.99927 1C8.40797 1 6.88185 1.6965 5.75663 2.93628C4.63141 4.17606 3.99927 5.85756 3.99927 7.61087C3.99927 12.5679 2.58827 14.1733 1.26127 15.6827Z" fill="white"/>
<path d="M8.26727 21.9344C8.44281 22.2694 8.69529 22.5475 8.99931 22.7409C9.30334 22.9343 9.64821 23.0361 9.99927 23.0361C10.3503 23.0361 10.6952 22.9343 10.9992 22.7409C11.3033 22.5475 11.5557 22.2694 11.7313 21.9344M1.26127 15.6827C1.13063 15.8405 1.04442 16.0367 1.01312 16.2474C0.981826 16.4582 1.00679 16.6744 1.08498 16.8698C1.16316 17.0652 1.2912 17.2314 1.45352 17.3481C1.61585 17.4648 1.80545 17.527 1.99927 17.5272H17.9993C18.1931 17.5272 18.3827 17.4653 18.5451 17.3488C18.7076 17.2323 18.8358 17.0663 18.9142 16.8711C18.9926 16.6758 19.0178 16.4596 18.9867 16.2488C18.9557 16.0381 18.8697 15.8418 18.7393 15.6838C17.4093 14.1733 15.9993 12.5679 15.9993 7.61087C15.9993 5.85756 15.3671 4.17606 14.2419 2.93628C13.1167 1.6965 11.5906 1 9.99927 1C8.40797 1 6.88185 1.6965 5.75663 2.93628C4.63141 4.17606 3.99927 5.85756 3.99927 7.61087C3.99927 12.5679 2.58827 14.1733 1.26127 15.6827Z" stroke="white" stroke-width="2" stroke-linecap="round" stroke-linejoin="round"/>
</svg>
