<svg width="20" height="22" viewBox="0 0 20 22" fill="none" xmlns="http://www.w3.org/2000/svg">
<path d="M10.5932 21.2579L10.5822 21.2599L10.5112 21.2949L10.4912 21.2989L10.4772 21.2949L10.4062 21.2599C10.3955 21.2566 10.3875 21.2583 10.3822 21.2649L10.3782 21.2749L10.3612 21.7029L10.3662 21.7229L10.3762 21.7359L10.4802 21.8099L10.4952 21.8139L10.5072 21.8099L10.6112 21.7359L10.6232 21.7199L10.6272 21.7029L10.6102 21.2759C10.6075 21.2653 10.6018 21.2593 10.5932 21.2579ZM10.8582 21.1449L10.8452 21.1469L10.6602 21.2399L10.6502 21.2499L10.6472 21.2609L10.6652 21.6909L10.6702 21.7029L10.6782 21.7099L10.8792 21.8029C10.8918 21.8063 10.9015 21.8036 10.9082 21.7949L10.9122 21.7809L10.8782 21.1669C10.8748 21.1549 10.8682 21.1476 10.8582 21.1449ZM10.1432 21.1469C10.1388 21.1443 10.1335 21.1434 10.1285 21.1445C10.1234 21.1456 10.119 21.1487 10.1162 21.1529L10.1102 21.1669L10.0762 21.7809C10.0768 21.7929 10.0825 21.8009 10.0932 21.8049L10.1082 21.8029L10.3092 21.7099L10.3192 21.7019L10.3232 21.6909L10.3402 21.2609L10.3372 21.2489L10.3272 21.2389L10.1432 21.1469Z" fill="white"/>
<path d="M10 0C15.523 0 20 4.477 20 10C20 15.523 15.523 20 10 20C4.477 20 0 15.523 0 10C0 4.477 4.477 0 10 0ZM11.5 5H9C8.46957 5 7.96086 5.21071 7.58579 5.58579C7.21071 5.96086 7 6.46957 7 7V14C7 14.2652 7.10536 14.5196 7.29289 14.7071C7.48043 14.8946 7.73478 15 8 15C8.26522 15 8.51957 14.8946 8.70711 14.7071C8.89464 14.5196 9 14.2652 9 14V12H11.5C12.4283 12 13.3185 11.6313 13.9749 10.9749C14.6313 10.3185 15 9.42826 15 8.5C15 7.57174 14.6313 6.6815 13.9749 6.02513C13.3185 5.36875 12.4283 5 11.5 5ZM11.5 7C11.8978 7 12.2794 7.15804 12.5607 7.43934C12.842 7.72064 13 8.10218 13 8.5C13 8.89782 12.842 9.27936 12.5607 9.56066C12.2794 9.84196 11.8978 10 11.5 10H9V7H11.5Z" fill="white"/>
</svg>
