<svg width="36" height="36" viewBox="0 0 36 36" fill="none" xmlns="http://www.w3.org/2000/svg">
<mask id="mask0_66_2224" style="mask-type:alpha" maskUnits="userSpaceOnUse" x="1" y="1" width="34" height="34">
<path d="M6.99965 34.0629C4.17139 34.0323 2.75726 34.017 1.88812 33.1289C1.01899 32.2408 1.03428 30.8267 1.06485 27.9984L1.33755 2.76773C1.3481 1.79142 2.14811 1.00853 3.12441 1.01908V1.01908C20.3724 1.2055 34.2036 15.3389 34.0172 32.5869V32.5869C34.0066 33.5633 33.2066 34.3461 32.2303 34.3356L6.99965 34.0629Z" fill="#99EA48"/>
</mask>
<g mask="url(#mask0_66_2224)">
<path d="M6.99965 34.0629C4.17139 34.0323 2.75726 34.017 1.88812 33.1289C1.01899 32.2408 1.03428 30.8267 1.06485 27.9984L1.33755 2.76773C1.3481 1.79142 2.14811 1.00853 3.12441 1.01908V1.01908C20.3724 1.2055 34.2036 15.3389 34.0172 32.5869V32.5869C34.0066 33.5633 33.2066 34.3461 32.2303 34.3356L6.99965 34.0629Z" fill="#7789FF"/>
</g>
<mask id="mask1_66_2224" style="mask-type:alpha" maskUnits="userSpaceOnUse" x="2" y="1" width="33" height="34">
<path d="M28.4769 34.2843C31.3052 34.3148 32.7193 34.3301 33.6074 33.461C34.4956 32.5919 34.5108 31.1777 34.5414 28.3495L34.8144 3.09084C34.8248 2.12998 34.0543 1.34263 33.0934 1.33224V1.33224C16.1183 1.14877 2.20844 14.7611 2.02497 31.7363L2.01963 32.2304C2.00908 33.2067 2.79197 34.0067 3.76828 34.0172L28.4769 34.2843Z" fill="#99EA48"/>
</mask>
<g mask="url(#mask1_66_2224)">
<path d="M28.4769 34.2843C31.3052 34.3148 32.7193 34.3301 33.6074 33.461C34.4956 32.5919 34.5108 31.1777 34.5414 28.3495L34.8144 3.09084C34.8248 2.12998 34.0543 1.34263 33.0934 1.33224V1.33224C16.1183 1.14877 2.20844 14.7611 2.02497 31.7363L2.01963 32.2304C2.00908 33.2067 2.79197 34.0067 3.76828 34.0172L28.4769 34.2843Z" fill="#D5DDFF"/>
</g>
<path d="M8.19922 19.5999V18.1999C8.19922 16.9129 8.4527 15.6386 8.9452 14.4496C9.4377 13.2606 10.1596 12.1803 11.0696 11.2703C11.9796 10.3602 13.0599 9.63838 14.2489 9.14588C15.4379 8.65339 16.7123 8.3999 17.9992 8.3999C19.2862 8.3999 20.5605 8.65339 21.7495 9.14588C22.9385 9.63838 24.0188 10.3602 24.9289 11.2703C25.8389 12.1803 26.5607 13.2606 27.0532 14.4496C27.5457 15.6386 27.7992 16.9129 27.7992 18.1999V19.5999" stroke="#405FED" stroke-width="2.4" stroke-linecap="round" stroke-linejoin="round"/>
<path d="M11 22.4998C11 21.7572 10.7054 20.9451 10.1803 20.42C9.65519 19.8949 8.943 19.5999 8.20039 19.5999C7.45779 19.5999 6.74559 19.8949 6.22049 20.42C5.69539 20.9451 5.40039 21.6573 5.40039 22.3999L5.5 19.5C5.5 20.163 5.78975 20.7989 6.30551 21.2678C6.82128 21.7366 7.5208 22 8.2502 22C8.97959 22 9.67912 21.7366 10.1949 21.2678C10.7106 20.7989 11 20.2629 11 19.5999L11 22.4998Z" stroke="#405FED" stroke-width="2.4" stroke-linecap="round" stroke-linejoin="round"/>
<path d="M30.5996 22.9998C30.5996 22.2572 30.305 21.4451 29.7799 20.92C29.2548 20.3949 28.5426 20.0999 27.8 20.0999C27.0574 20.0999 26.3452 20.3949 25.8201 20.92C25.295 21.4451 25 22.1573 25 22.8999L25.0996 20C25.0996 20.663 25.3894 21.2989 25.9051 21.7678C26.4209 22.2366 27.1204 22.5 27.8498 22.5C28.5792 22.5 29.2787 22.2366 29.7945 21.7678C30.3102 21.2989 30.5996 20.7629 30.5996 20.0999L30.5996 22.9998Z" stroke="#405FED" stroke-width="2.4" stroke-linecap="round" stroke-linejoin="round"/>
<path d="M28 23C28 24.8565 27.3679 26.637 26.2426 27.9497C25.1174 29.2625 23.5913 30 22 30H16" stroke="#405FED" stroke-width="2.4" stroke-linecap="round" stroke-linejoin="round"/>
</svg>
